<svg id="visual" viewBox="0 0 3840 2160" width="3840" height="2160" xmlns="http://www.w3.org/2000/svg" xmlns:xlink="http://www.w3.org/1999/xlink" version="1.1"><rect x="0" y="0" width="3840" height="2160" fill="#00111e"></rect><path d="M0 940L128 980.2C256 1020.3 512 1100.7 768 1135.3C1024 1170 1280 1159 1536 1113.2C1792 1067.3 2048 986.7 2304 990.8C2560 995 2816 1084 3072 1090.7C3328 1097.3 3584 1021.7 3712 983.8L3840 946L3840 2161L3712 2161C3584 2161 3328 2161 3072 2161C2816 2161 2560 2161 2304 2161C2048 2161 1792 2161 1536 2161C1280 2161 1024 2161 768 2161C512 2161 256 2161 128 2161L0 2161Z" fill="#8f44ff"></path><path d="M0 1152L128 1150.3C256 1148.7 512 1145.3 768 1173.3C1024 1201.3 1280 1260.7 1536 1264C1792 1267.3 2048 1214.7 2304 1217.5C2560 1220.3 2816 1278.7 3072 1304.2C3328 1329.7 3584 1322.3 3712 1318.7L3840 1315L3840 2161L3712 2161C3584 2161 3328 2161 3072 2161C2816 2161 2560 2161 2304 2161C2048 2161 1792 2161 1536 2161C1280 2161 1024 2161 768 2161C512 2161 256 2161 128 2161L0 2161Z" fill="#7835db"></path><path d="M0 1462L128 1452C256 1442 512 1422 768 1416.2C1024 1410.3 1280 1418.7 1536 1420.5C1792 1422.3 2048 1417.7 2304 1393.5C2560 1369.3 2816 1325.7 3072 1327.7C3328 1329.7 3584 1377.3 3712 1401.2L3840 1425L3840 2161L3712 2161C3584 2161 3328 2161 3072 2161C2816 2161 2560 2161 2304 2161C2048 2161 1792 2161 1536 2161C1280 2161 1024 2161 768 2161C512 2161 256 2161 128 2161L0 2161Z" fill="#6226b8"></path><path d="M0 1685L128 1676.2C256 1667.3 512 1649.7 768 1620.8C1024 1592 1280 1552 1536 1548.2C1792 1544.3 2048 1576.7 2304 1603.8C2560 1631 2816 1653 3072 1631.5C3328 1610 3584 1545 3712 1512.5L3840 1480L3840 2161L3712 2161C3584 2161 3328 2161 3072 2161C2816 2161 2560 2161 2304 2161C2048 2161 1792 2161 1536 2161C1280 2161 1024 2161 768 2161C512 2161 256 2161 128 2161L0 2161Z" fill="#4c1896"></path><path d="M0 1832L128 1821.3C256 1810.7 512 1789.3 768 1762.3C1024 1735.3 1280 1702.7 1536 1684.7C1792 1666.7 2048 1663.3 2304 1686.5C2560 1709.7 2816 1759.3 3072 1781.2C3328 1803 3584 1797 3712 1794L3840 1791L3840 2161L3712 2161C3584 2161 3328 2161 3072 2161C2816 2161 2560 2161 2304 2161C2048 2161 1792 2161 1536 2161C1280 2161 1024 2161 768 2161C512 2161 256 2161 128 2161L0 2161Z" fill="#370a76"></path><path d="M0 1826L128 1830C256 1834 512 1842 768 1888.2C1024 1934.3 1280 2018.7 1536 2054.3C1792 2090 2048 2077 2304 2071.3C2560 2065.7 2816 2067.3 3072 2076.3C3328 2085.3 3584 2101.7 3712 2109.8L3840 2118L3840 2161L3712 2161C3584 2161 3328 2161 3072 2161C2816 2161 2560 2161 2304 2161C2048 2161 1792 2161 1536 2161C1280 2161 1024 2161 768 2161C512 2161 256 2161 128 2161L0 2161Z" fill="#230057"></path></svg>